<?xml version="1.0" standalone="no"?><!DOCTYPE svg PUBLIC "-//W3C//DTD SVG 1.1//EN" "http://www.w3.org/Graphics/SVG/1.1/DTD/svg11.dtd"><svg class="icon" width="200px" height="200.00px" viewBox="0 0 1024 1024" version="1.1" xmlns="http://www.w3.org/2000/svg"><path d="M616.7 903.9h-56.2V761.8c0-27.2-21.3-48.4-48.4-48.4-27.1 0-48.4 21.3-48.4 48.4v142.1h-56.2V761.8c0-28.1 10.9-54.4 30.6-74.1 19.7-19.7 46-30.6 74.1-30.6 28.1 0 54.4 10.9 74.1 30.6 19.7 19.7 30.6 46 30.6 74.1v142.1z" fill="#FFB612" /><path d="M736.3 960H287.7c-38.8 0-76.7-18.8-104-51.6-26.5-31.8-41.1-73.3-41.1-116.9V391.9c0-57.3 24.8-110.2 66.4-141.5L417.2 91.1c22.6-17.5 51.3-27.1 81-27.1 24.3 0 50.7 7.8 72.3 21.3l1.2 0.8 237.7 165.6c44.4 29 71.9 84.3 71.9 144.5v395.4c0 43.6-14.6 85.1-41.1 116.9C813 941.2 775.1 960 736.3 960zM498.2 120.2c-10 0-29.4 2-46.5 15.3l-0.2 0.1-208.6 159.7c-27.2 20.4-44 57.4-44 96.6v399.7c0 60.8 40.7 112.2 88.8 112.2h448.6c48.1 0 88.8-51.4 88.8-112.2V396.1c0-40.9-18.3-79.2-46.7-97.6l-0.8-0.5-237.5-165.4c-12.5-7.6-28.5-12.4-41.9-12.4z m-63.8-6.8z" fill="#593A25" /></svg>