<?xml version="1.0" standalone="no"?><!DOCTYPE svg PUBLIC "-//W3C//DTD SVG 1.1//EN" "http://www.w3.org/Graphics/SVG/1.1/DTD/svg11.dtd"><svg class="icon" width="200px" height="200.00px" viewBox="0 0 1024 1024" version="1.1" xmlns="http://www.w3.org/2000/svg"><path d="M571.3 960.1H453.9c-44.1 0-87-8.7-127.3-25.7-39-16.5-73.9-40.1-104-70.1-30-30-53.6-65-70.1-104-17.1-40.3-25.7-83.2-25.7-127.3V247.6c0-78.2 63.6-141.8 141.8-141.8h19.1c15.5 0 28.1 12.6 28.1 28.1S303.2 162 287.7 162h-19.1c-47.2 0-85.5 38.4-85.5 85.5v385.4c0 149.3 121.5 270.8 270.8 270.8h117.4c148.7 0 269.6-120.9 269.6-269.6V247.6c0-47.2-38.4-85.5-85.5-85.5H727c-15.5 0-28.1-12.6-28.1-28.1s12.6-28.1 28.1-28.1h28.4c78.2 0 141.8 63.6 141.8 141.8v386.7c0 44-8.6 86.7-25.6 126.8-16.4 38.8-39.9 73.6-69.8 103.6-29.9 29.9-64.8 53.4-103.6 69.8-40.3 16.9-82.9 25.5-126.9 25.5z" fill="#593A25" /><path d="M597.2 162.1H406.4c-15.5 0-28.1-12.6-28.1-28.1s12.6-28.1 28.1-28.1h190.9c15.5 0 28.1 12.6 28.1 28.1s-12.6 28.1-28.2 28.1z" fill="#593A25" /><path d="M554 414.1H323c-15.5 0-28.1-12.6-28.1-28.1 0-15.5 12.6-28.1 28.1-28.1h231c15.5 0 28.1 12.6 28.1 28.1 0 15.5-12.6 28.1-28.1 28.1zM554 540.1H323c-15.5 0-28.1-12.6-28.1-28.1s12.6-28.1 28.1-28.1h231c15.5 0 28.1 12.6 28.1 28.1s-12.6 28.1-28.1 28.1zM491 666.1H323c-15.5 0-28.1-12.6-28.1-28.1s12.6-28.1 28.1-28.1h168c15.5 0 28.1 12.6 28.1 28.1s-12.6 28.1-28.1 28.1z" fill="#FFB612" /><path d="M344 204.1c-15.5 0-28.1-12.6-28.1-28.1V92c0-15.5 12.6-28.1 28.1-28.1s28.1 12.6 28.1 28.1v84c0 15.5-12.6 28.1-28.1 28.1zM659 204.1c-15.5 0-28.1-12.6-28.1-28.1V92c0-15.5 12.6-28.1 28.1-28.1s28.1 12.6 28.1 28.1v84c0 15.5-12.6 28.1-28.1 28.1z" fill="#593A25" /></svg>