<?xml version="1.0" standalone="no"?><!DOCTYPE svg PUBLIC "-//W3C//DTD SVG 1.1//EN" "http://www.w3.org/Graphics/SVG/1.1/DTD/svg11.dtd"><svg class="icon" width="200px" height="200.00px" viewBox="0 0 1024 1024" version="1.1" xmlns="http://www.w3.org/2000/svg"><path d="M512 330c-73.4 0-133.2-59.7-133.2-133.2S438.6 63.7 512 63.7s133.2 59.7 133.2 133.2S585.4 330 512 330z m0-210c-42.4 0-76.9 34.5-76.9 76.9s34.5 76.9 76.9 76.9 76.9-34.5 76.9-76.9S554.4 120 512 120z" fill="#593A25" /><path d="M512 632c-59 0-106.9-48-106.9-106.9 0-59 48-106.9 106.9-106.9 59 0 106.9 48 106.9 106.9 0 59-47.9 106.9-106.9 106.9z m0-157.5c-27.9 0-50.6 22.7-50.6 50.6 0 27.9 22.7 50.6 50.6 50.6s50.6-22.7 50.6-50.6c0-27.9-22.7-50.6-50.6-50.6z" fill="#FFB612" /><path d="M512 960.3c-59 0-106.9-48-106.9-106.9 0-59 48-106.9 106.9-106.9 59 0 106.9 48 106.9 106.9 0 58.9-47.9 106.9-106.9 106.9z m0-157.6c-27.9 0-50.6 22.7-50.6 50.6S484.1 904 512 904s50.6-22.7 50.6-50.6-22.7-50.7-50.6-50.7z" fill="#593A25" /></svg>