<?xml version="1.0" standalone="no"?><!DOCTYPE svg PUBLIC "-//W3C//DTD SVG 1.1//EN" "http://www.w3.org/Graphics/SVG/1.1/DTD/svg11.dtd"><svg class="icon" width="200px" height="200.00px" viewBox="0 0 1024 1024" version="1.1" xmlns="http://www.w3.org/2000/svg"><path d="M512 519.1c-58.2 0-112.9-22.9-153.9-64.5-40.8-41.4-63.2-96.3-63.2-154.6 0-68.8 13.3-121 40.6-159.6C371.5 89.7 430.9 64 512 64c82.8 0 142.8 25.8 178.2 76.6 26.5 38.1 38.9 88.8 38.9 159.3 0 58.3-22.4 113.2-63.2 154.6-41 41.7-95.7 64.6-153.9 64.6z m0-398.9c-62.7 0-105.4 17.2-130.6 52.7-20.3 28.7-30.2 70.2-30.2 127 0 89.8 72.1 162.9 160.8 162.9 88.7 0 160.8-73.1 160.8-162.9 0-58.5-9.2-99-28.8-127.2-24.6-35.3-67.8-52.5-132-52.5z" fill="#FFB612" /><path d="M721.9 960H302.1c-52.2 0-101.4-20.4-138.5-57.6-37.1-37.1-57.6-86.3-57.6-138.5s20.4-101.4 57.6-138.5c37.1-37.1 86.3-57.6 138.5-57.6H722c52.2 0 101.4 20.4 138.5 57.6 37.1 37.1 57.6 86.3 57.6 138.5s-20.4 101.4-57.6 138.5c-37.2 37.2-86.4 57.6-138.6 57.6zM302.1 624.1c-77.1 0-139.8 62.7-139.8 139.8 0 77.1 62.7 139.8 139.8 139.8H722c77.1 0 139.8-62.7 139.8-139.8 0-77.1-62.7-139.8-139.8-139.8H302.1z" fill="#593A25" /></svg>