<?xml version="1.0" standalone="no"?><!DOCTYPE svg PUBLIC "-//W3C//DTD SVG 1.1//EN" "http://www.w3.org/Graphics/SVG/1.1/DTD/svg11.dtd"><svg class="icon" width="200px" height="200.00px" viewBox="0 0 1024 1024" version="1.1" xmlns="http://www.w3.org/2000/svg"><path d="M862.3 299l-206-219.4c-8.7-9.2-20.9-14.6-33.6-14.6H197.3c-25.4 0-46.1 20.7-46.1 46.1v804.1c0 25.4 20.7 46.1 46.1 46.1h631.4c25.4 0 46.1-20.7 46.1-46.1V330.5c0-11.7-4.5-22.9-12.5-31.5zM658.5 163.8l123.9 131.9H658.5V163.8zM207.2 905.3V121.1h395.2v184.7c0 25.3 20.6 45.9 45.9 45.9h170.3v553.6H207.2z" fill="#FC592D" /><path d="M434.8 660.6H300.7c-10.4 0-18.7-8.4-18.7-18.7v-18.5c0-10.4 8.4-18.7 18.7-18.7h134.1c10.4 0 18.7 8.4 18.7 18.7v18.5c0 10.3-8.4 18.7-18.7 18.7zM517.6 778.9H300.8c-10.4 0-18.8-8.4-18.8-18.8v-18.3c0-10.4 8.4-18.8 18.8-18.8h216.7c10.4 0 18.8 8.4 18.8 18.8V760c0.1 10.4-8.3 18.9-18.7 18.9z" fill="#FFCE00" /></svg>